<svg width="28" height="35" viewBox="0 0 28 35" fill="none" xmlns="http://www.w3.org/2000/svg">
<path fill-rule="evenodd" clip-rule="evenodd" d="M17.7398 21.0881C16.5672 22.0895 15.143 22.6769 13.6068 22.6769C10.5933 22.6769 8.00945 20.4181 6.91464 17.2031H6.9146C6.62264 16.0539 6.46509 14.8354 6.46509 13.5729C6.46509 12.7894 6.5261 12.023 6.64174 11.2793C7.51773 7.56823 10.3043 4.85522 13.6068 4.85522C15.639 4.85522 17.4755 5.88288 18.7922 7.53781C20.0702 9.1443 20.8584 11.342 20.8584 13.7661C20.8584 16.7998 19.6244 19.4789 17.7398 21.0881ZM27.5187 12.878C27.4933 12.322 27.4356 11.7763 27.3512 11.2418C26.6236 7.20622 24.108 3.78459 20.6455 1.81075C20.634 1.80569 20.6227 1.79999 20.6111 1.79497V1.79168C18.5982 0.65174 16.2676 0 13.7833 0C13.7638 0 13.7444 0.000680024 13.7249 0.000720024C13.7115 0.000720024 13.6983 0.000129938 13.6849 0.000129938C12.5906 0.000129938 11.5262 0.12785 10.5059 0.36908C10.4959 0.37153 10.4858 0.37389 10.4757 0.37642C10.4312 0.38701 10.3871 0.39836 10.3428 0.40937C9.14973 0.71761 8.02041 1.18272 6.97675 1.77982C6.9477 1.79645 6.91823 1.81252 6.88931 1.82936C6.88465 1.83202 6.88008 1.8348 6.87542 1.83746C2.76468 4.20177 0 8.611 0 13.6605C0 14.4172 0 15.6604 0 15.6604V35H1.84195C4.63961 35 6.9076 32.74 6.9076 29.952V25.5002C8.6138 26.4752 10.5501 27.0992 12.6164 27.2709C12.6258 27.2717 12.6352 27.2723 12.6446 27.2731C12.7253 27.2797 12.8062 27.2861 12.8874 27.2912C12.9837 27.2975 13.0803 27.3029 13.1772 27.3072C13.2039 27.3083 13.2306 27.3092 13.2573 27.3102C13.3302 27.313 13.4032 27.3155 13.4764 27.3172C13.5533 27.3189 13.6305 27.3197 13.7077 27.3201C13.7349 27.3203 13.7621 27.321 13.7893 27.321C13.8894 27.3209 13.9891 27.3194 14.0886 27.3172C14.1837 27.3149 14.2785 27.3116 14.3732 27.3077C14.3776 27.3076 14.3818 27.3074 14.3862 27.3073C17.3668 27.1801 20.1023 26.1155 22.2992 24.4025C24.3974 22.7663 26.0039 20.539 26.8645 17.9743C27.222 16.8415 27.4462 15.6312 27.513 14.3699C27.5164 14.2461 27.5187 14.1222 27.5187 13.9977C27.5187 13.7787 27.513 13.5611 27.5026 13.3446C27.513 13.236 27.5187 13.126 27.5187 13.0146V12.878Z" fill="#1DCF9F"/>
<path fill-rule="evenodd" clip-rule="evenodd" d="M17.0041 26.0997C12.2491 26.0997 8.23089 22.3499 6.92272 17.2003C6.63077 16.0511 6.47321 14.8326 6.47321 13.5701C6.47321 12.7867 6.53422 12.0202 6.64986 11.2765C7.55557 5.45209 11.8465 1.04048 17.0041 1.04048C18.0928 1.04048 19.1429 1.23711 20.1307 1.60206C20.2926 1.68805 20.6111 1.79497 20.6111 1.79497V1.79168C18.5982 0.65174 16.2676 0 13.7833 0C13.7638 0 13.7444 0.000680024 13.7249 0.000720024C13.7115 0.000720024 13.6983 0.000129938 13.6849 0.000129938C12.5906 0.000129938 11.5262 0.12785 10.5059 0.36908C10.4959 0.37153 10.4858 0.37389 10.4757 0.37642C10.4312 0.38701 10.3871 0.39836 10.3428 0.40937C9.14973 0.71761 8.02041 1.18272 6.97675 1.77982C6.9477 1.79645 6.91823 1.81252 6.88931 1.82936C6.88465 1.83202 6.88008 1.8348 6.87542 1.83746C2.76467 4.20177 0 8.611 0 13.6605C0 14.4172 0 15.6604 0 15.6604V35H1.84195C4.63961 35 6.9076 32.74 6.9076 29.952V25.5002C8.6138 26.4752 10.5501 27.0992 12.6164 27.2709C12.6258 27.2717 12.6352 27.2723 12.6446 27.2731C12.7253 27.2797 12.8062 27.2861 12.8874 27.2912C12.9837 27.2975 13.0803 27.3029 13.1772 27.3072C13.2039 27.3083 13.2306 27.3092 13.2573 27.3102C13.3302 27.313 13.4032 27.3155 13.4764 27.3172C13.5533 27.3189 13.6305 27.3197 13.7077 27.3201C13.7349 27.3203 13.7621 27.321 13.7893 27.321C13.8894 27.3209 13.9891 27.3194 14.0886 27.3172C14.1837 27.3149 14.2785 27.3116 14.3732 27.3077C14.3776 27.3076 14.3818 27.3074 14.3862 27.3073C17.3668 27.1801 20.1023 26.1155 22.2992 24.4025C20.7436 25.4814 18.9346 26.0997 17.0041 26.0997Z" fill="#1DCF9F"/>
<path fill-rule="evenodd" clip-rule="evenodd" d="M26.8669 17.9772C27.2244 16.8445 27.4486 15.6342 27.5154 14.3728C27.5188 14.2491 27.5212 14.1252 27.5212 14.0007C27.5212 13.7817 27.5155 13.564 27.505 13.3476C27.5154 13.239 27.5212 13.129 27.5212 13.0176V12.881C27.4957 12.3249 27.438 11.7793 27.3536 11.2448C26.6261 7.20919 24.1104 3.78756 20.648 1.81372C20.6364 1.80866 20.6252 1.80297 20.6136 1.79794C20.6136 1.79794 20.2951 1.69102 20.1331 1.60503C19.1453 1.24009 18.0953 1.04346 17.0066 1.04346C11.849 1.04346 7.55801 5.45506 6.65234 11.2795C7.52832 7.56843 10.3149 4.85543 13.6174 4.85543C15.6496 4.85543 17.4861 5.88309 18.8027 7.53801C20.0808 9.1445 20.8689 11.3422 20.8689 13.7663C20.8689 16.8 19.6349 19.4791 17.7504 21.0883C16.5778 22.0897 15.1535 22.6771 13.6174 22.6771C10.6039 22.6771 8.01996 20.4182 6.9252 17.2033C8.23333 22.3529 12.2516 26.1027 17.0066 26.1027C18.937 26.1027 20.7461 25.4844 22.3016 24.4054C24.3998 22.7692 26.0063 20.542 26.8669 17.9772Z" fill="url(#paint0_linear)"/>
<defs>
<linearGradient id="paint0_linear" x1="6.87687" y1="1.04346" x2="6.87687" y2="25.5635" gradientUnits="userSpaceOnUse">
<stop stop-color="#108767"/>
<stop offset="0.547327" stop-color="#1DCF9F"/>
</linearGradient>
</defs>
</svg>
